/* XPM */
static char * close_pressed_xpm[] = {
"16 16 136 2",
"  	c None",
". 	c #000B15",
"+ 	c #000B14",
"@ 	c #010A13",
"# 	c #010913",
"$ 	c #000910",
"% 	c #01080F",
"& 	c #00070E",
"* 	c #00060C",
"= 	c #01060B",
"- 	c #000509",
"; 	c #000508",
"> 	c #000407",
", 	c #010205",
"' 	c #010204",
") 	c #020204",
"! 	c #010101",
"~ 	c #010C16",
"{ 	c #010B15",
"] 	c #020A17",
"^ 	c #000B16",
"/ 	c #000914",
"( 	c #010810",
"_ 	c #01070E",
": 	c #00070D",
"< 	c #010408",
"[ 	c #020306",
"} 	c #000204",
"| 	c #010202",
"1 	c #000A18",
"2 	c #020B1B",
"3 	c #030D24",
"4 	c #000B21",
"5 	c #030B1A",
"6 	c #00070F",
"7 	c #00060B",
"8 	c #02060C",
"9 	c #00040E",
"0 	c #06040C",
"a 	c #000206",
"b 	c #000202",
"c 	c #020C19",
"d 	c #0A0E27",
"e 	c #FF00A6",
"f 	c #FF0384",
"g 	c #00091D",
"h 	c #030918",
"i 	c #01070D",
"j 	c #020711",
"k 	c #00050F",
"l 	c #FF0180",
"m 	c #060308",
"n 	c #000104",
"o 	c #000102",
"p 	c #010B16",
"q 	c #000A17",
"r 	c #040D27",
"s 	c #FF0385",
"t 	c #FF0284",
"u 	c #04081B",
"v 	c #030915",
"w 	c #020713",
"x 	c #000611",
"y 	c #FF0181",
"z 	c #FF017F",
"A 	c #000406",
"B 	c #000103",
"C 	c #000D21",
"D 	c #040B22",
"E 	c #FF0283",
"F 	c #040717",
"G 	c #000713",
"H 	c #00040A",
"I 	c #000305",
"J 	c #000203",
"K 	c #010B14",
"L 	c #030D1F",
"M 	c #000B1F",
"N 	c #FF0282",
"O 	c #00040C",
"P 	c #02040A",
"Q 	c #000C16",
"R 	c #000A13",
"S 	c #010912",
"T 	c #000C1B",
"U 	c #04091D",
"V 	c #FF0182",
"W 	c #04050F",
"X 	c #00050C",
"Y 	c #010102",
"Z 	c #000101",
"` 	c #000A14",
" .	c #010911",
"..	c #000C1D",
"+.	c #04091B",
"@.	c #010305",
"#.	c #010001",
"$.	c #040B1F",
"%.	c #00050D",
"&.	c #020408",
"*.	c #010103",
"=.	c #030D21",
"-.	c #000B23",
";.	c #000817",
">.	c #000613",
",.	c #000B18",
"'.	c #000D26",
").	c #000814",
"!.	c #020813",
"~.	c #040308",
"{.	c #010203",
"].	c #020C1A",
"^.	c #070D26",
"/.	c #FF0285",
"(.	c #030917",
"_.	c #00060D",
":.	c #01050B",
"<.	c #020811",
"[.	c #00060F",
"}.	c #030308",
"|.	c #020102",
"1.	c #010B19",
"2.	c #070C24",
"3.	c #030A1A",
"4.	c #010509",
"5.	c #03040B",
"6.	c #020205",
"7.	c #000A16",
"8.	c #000913",
"9.	c #00080F",
"0.	c #00080E",
"a.	c #010609",
"b.	c #000408",
"c.	c #000306",
"d.	c #00050A",
"e.	c #030103",
". + @ # $ % & * = - ; > , ' ) ! ",
"~ { ] ^ / ( _ : = - < < [ } | ! ",
"{ 1 2 3 4 5 6 * 7 - 8 9 0 a b ! ",
". c d e f g h i = j k l e m n o ",
"p q r s e t u v w x y e z A B ! ",
"p . C D f e E F G y e l H I J ! ",
". K @ L M t e E N e y O P } b ! ",
"Q { R S T U E e e V W X I ' Y Z ",
"^ ` R  ...+.E e e y k P @.} b #.",
"p + @ L $.t e E N e y %.&.' *.Y ",
"^ + =.-.t e E ;.>.y e l H [ o ! ",
"{ ,.'.s e E u ).!.>.y e z ~.{.! ",
"^ ].^.e /.g (._.:.<.[.l e }.|.! ",
"~ 1.2 2.D 3.i * 7 4.8 * 5.6.o ! ",
"^ K 7.] 8.9.0.* = a.b.< c.} *.|.",
"^ + R S $ 9.: * :.d.b.> @.} e.! "};
