/* XPM */
static char * close_xpm[] = {
"16 16 84 1",
" 	c None",
".	c #000B15",
"+	c #000B14",
"@	c #010A13",
"#	c #010912",
"$	c #000910",
"%	c #01080F",
"&	c #00070E",
"*	c #00060C",
"=	c #01060B",
"-	c #000509",
";	c #000508",
">	c #000407",
",	c #010205",
"'	c #010204",
")	c #020204",
"!	c #010101",
"~	c #010C16",
"{	c #010B15",
"]	c #000A11",
"^	c #01070E",
"/	c #00070D",
"(	c #010408",
"_	c #010407",
":	c #010305",
"<	c #000204",
"[	c #010202",
"}	c #000A14",
"|	c #000810",
"1	c #01080E",
"2	c #00060B",
"3	c #010508",
"4	c #000307",
"5	c #020307",
"6	c #000202",
"7	c #010B14",
"8	c #030A14",
"9	c #FF0056",
"0	c #C00245",
"a	c #00080F",
"b	c #01070D",
"c	c #01050A",
"d	c #000408",
"e	c #C00142",
"f	c #000103",
"g	c #000102",
"h	c #010B16",
"i	c #C00244",
"j	c #01070C",
"k	c #01050B",
"l	c #C00143",
"m	c #000303",
"n	c #000A13",
"o	c #01060C",
"p	c #00060A",
"q	c #000305",
"r	c #000203",
"s	c #010A12",
"t	c #000306",
"u	c #010306",
"v	c #000C16",
"w	c #010102",
"x	c #000101",
"y	c #000B16",
"z	c #010911",
"A	c #000911",
"B	c #010001",
"C	c #010910",
"D	c #C00144",
"E	c #010103",
"F	c #000912",
"G	c #00070C",
"H	c #00050A",
"I	c #010203",
"J	c #020A13",
"K	c #00060D",
"L	c #01060A",
"M	c #020912",
"N	c #010509",
"O	c #000406",
"P	c #00080E",
"Q	c #010609",
"R	c #020102",
"S	c #030103",
".+@#$%&*=-;>,')!",
"~{@]$%^/=-(_:<[!",
"{}@#|1&*2-345<6!",
".7890abb=cde9)fg",
"h}@09i^jk-l9emf!",
"h.n#09iopl9eqrr!",
".7@s$i9il9ltu<6!",
"v{n#$%i99l(>q'wx",
"y}nzA1i99ldu:<6B",
"h+@sCi9Dl9l>:'Ew",
"y+@F09iGHl9eq'g!",
"{+n09i^*=Hl9e'I!",
"y7J90abKkL;e9'w!",
"~{@Mz%b*2N3OuIg!",
"y7n#$aP*=Qd_q<ER",
"y+n#$a/*kHd>:<S!"};
