/* XPM */
static char * close_inactive_xpm[] = {
"16 16 16 1",
" 	c None",
".	c #0B0B0B",
"+	c #0A0A0A",
"@	c #080808",
"#	c #070707",
"$	c #060606",
"%	c #050505",
"&	c #040404",
"*	c #030303",
"=	c #010101",
"-	c #0C0C0C",
";	c #090909",
">	c #020202",
",	c #808080",
"'	c #616161",
")	c #606060",
".+++@@#$$%&&***=",
"-.+;@@@#$%%&*>>=",
".+++@@#$$%%&&>==",
"...,'@##$$&',*>=",
"-++','@#$%),)>>=",
"-.++','#%',)*>>=",
"..++@','',)*&>==",
"..++@@',,'%&**>=",
".++;;@',,'&&*>==",
"-+++;','','&**>>",
".++;','$%',)**==",
".++','@$$%',)*>=",
"...,'@##$$&),*>=",
"-.++;@#$$%%*&>==",
"..++@@#$$%&&*>>=",
".+++@@#$$%&&*>>="};
