/* XPM */
static char * full_pressed_xpm[] = {
"16 16 120 2",
"  	c None",
". 	c #01162D",
"+ 	c #002144",
"@ 	c #02264F",
"# 	c #002349",
"$ 	c #022043",
"% 	c #001E41",
"& 	c #021E3F",
"* 	c #021D3B",
"= 	c #021B3A",
"- 	c #001B38",
"; 	c #001935",
"> 	c #021831",
", 	c #021932",
"' 	c #021731",
") 	c #011327",
"! 	c #010C18",
"~ 	c #012147",
"{ 	c #002A56",
"] 	c #50FFFF",
"^ 	c #2EA6FF",
"/ 	c #30A6FF",
"( 	c #2EA4FF",
"_ 	c #2EA2FF",
": 	c #30A2FF",
"< 	c #30A0FF",
"[ 	c #34ACFF",
"} 	c #40D6FF",
"| 	c #021832",
"1 	c #011024",
"2 	c #022A54",
"3 	c #5CFFFF",
"4 	c #42D6FF",
"5 	c #02162C",
"6 	c #002855",
"7 	c #2EA8FF",
"8 	c #44E6FF",
"9 	c #30A4FF",
"0 	c #48E8FF",
"a 	c #002651",
"b 	c #30A8FF",
"c 	c #00264D",
"d 	c #002448",
"e 	c #002244",
"f 	c #002043",
"g 	c #021C3B",
"h 	c #001C39",
"i 	c #2E9EFF",
"j 	c #00152B",
"k 	c #022750",
"l 	c #022347",
"m 	c #011830",
"n 	c #01152C",
"o 	c #001429",
"p 	c #001329",
"q 	c #001B37",
"r 	c #2EA0FF",
"s 	c #002246",
"t 	c #011326",
"u 	c #001124",
"v 	c #001123",
"w 	c #011121",
"x 	c #011020",
"y 	c #01101E",
"z 	c #001934",
"A 	c #02152B",
"B 	c #002750",
"C 	c #022247",
"D 	c #011226",
"E 	c #001224",
"F 	c #011123",
"G 	c #001022",
"H 	c #011021",
"I 	c #010F1F",
"J 	c #021529",
"K 	c #002247",
"L 	c #001326",
"M 	c #011125",
"N 	c #001020",
"O 	c #00132B",
"P 	c #02254F",
"Q 	c #022046",
"R 	c #001226",
"S 	c #011224",
"T 	c #000F1F",
"U 	c #021934",
"V 	c #309EFF",
"W 	c #011124",
"X 	c #011122",
"Y 	c #02274F",
"Z 	c #00254C",
"` 	c #002044",
" .	c #022040",
"..	c #001E3E",
"+.	c #001C3D",
"@.	c #001C3B",
"#.	c #001D3A",
"$.	c #002851",
"%.	c #44E2FF",
"&.	c #002954",
"*.	c #46E6FF",
"=.	c #02162D",
"-.	c #012144",
";.	c #002A58",
">.	c #46E2FF",
",.	c #001834",
"'.	c #001225",
").	c #00152C",
"!.	c #002042",
"~.	c #00254E",
"{.	c #02254C",
"].	c #021E3E",
"^.	c #021C3D",
"/.	c #021B3B",
"(.	c #021B37",
"_.	c #021B34",
":.	c #001A34",
"<.	c #001830",
"[.	c #011228",
"}.	c #000C18",
". + @ # $ % & * = - ; > , ' ) ! ",
"~ { ] ^ / / ( ( ( _ : < [ } | 1 ",
"2 ] 3 3 3 3 3 3 3 3 3 3 3 3 4 5 ",
"6 7 3 8 / ( 9 9 ( _ _ : 0 3 < 5 ",
"a b 3 / c d e f & & g h < 3 i j ",
"k 7 3 / l m . n o p ) q r 3 r j ",
"k 7 3 ^ s t u v w x y z < 3 < A ",
"B 7 3 / C D E F G H I z < 3 i J ",
"B b 3 / K L M v G N I ; < 3 < O ",
"P 7 3 / Q R S v G x T U r 3 V A ",
"k 7 3 / K D W F X x T z r 3 < O ",
"Y 7 3 / Z `  ...+.@.q #.< 3 V A ",
"$.7 3 8 ^ ( 9 9 : : _ r %.3 r 5 ",
"&.*.3 3 3 3 3 3 3 3 3 3 3 3 %.=.",
"-.;.*./ / / ( ( ( : : r < >.,.'.",
").!.~.{.s `  .].^./.(._.:.<.[.}."};
