/* XPM */
static char * full_xpm[] = {
"16 16 96 2",
"  	c #01162D",
". 	c #00152B",
"+ 	c #01142A",
"@ 	c #001328",
"# 	c #011327",
"$ 	c #001226",
"% 	c #011225",
"& 	c #011123",
"* 	c #011022",
"= 	c #001021",
"- 	c #000F1F",
"; 	c #010E1D",
"> 	c #010E1C",
", 	c #010D1B",
"' 	c #010D1A",
") 	c #010C18",
"! 	c #01152D",
"~ 	c #2882E5",
"{ 	c #175394",
"] 	c #185393",
"^ 	c #175292",
"/ 	c #175291",
"( 	c #175190",
"_ 	c #18518F",
": 	c #18508E",
"< 	c #1A5699",
"[ 	c #206BBB",
"} 	c #010C19",
"| 	c #010B18",
"1 	c #01162C",
"2 	c #2E92FF",
"3 	c #216BBA",
"4 	c #00152D",
"5 	c #175496",
"6 	c #2273CA",
"7 	c #175293",
"8 	c #185292",
"9 	c #185291",
"0 	c #175290",
"a 	c #17518F",
"b 	c #2474CC",
"c 	c #18508D",
"d 	c #185495",
"e 	c #185394",
"f 	c #001327",
"g 	c #001326",
"h 	c #001224",
"i 	c #001123",
"j 	c #011021",
"k 	c #010F1F",
"l 	c #000E1D",
"m 	c #174F8C",
"n 	c #000C18",
"o 	c #175495",
"p 	c #011326",
"q 	c #011224",
"r 	c #000F21",
"s 	c #000F1E",
"t 	c #17508E",
"u 	c #17508D",
"v 	c #001124",
"w 	c #011121",
"x 	c #011020",
"y 	c #01101E",
"z 	c #00162D",
"A 	c #011328",
"B 	c #011226",
"C 	c #001022",
"D 	c #010C17",
"E 	c #011125",
"F 	c #001020",
"G 	c #000E1E",
"H 	c #18508C",
"I 	c #000B18",
"J 	c #01152C",
"K 	c #011227",
"L 	c #184F8C",
"M 	c #011124",
"N 	c #011122",
"O 	c #00162C",
"P 	c #185190",
"Q 	c #17508F",
"R 	c #2271C7",
"S 	c #17508C",
"T 	c #2373CA",
"U 	c #2271C6",
"V 	c #00152C",
"W 	c #2371C6",
"X 	c #000C1A",
"Y 	c #00142A",
"Z 	c #011429",
"` 	c #010F21",
" .	c #010F1D",
"..	c #000E1C",
"+.	c #000D1A",
"@.	c #010C1A",
"  . + @ # $ % & * = - ; > , ' ) ",
"! . ~ { ] ] ^ / / ( _ : < [ } | ",
"1 ~ 2 2 2 2 2 2 2 2 2 2 2 2 3 ) ",
"4 5 2 6 ] 7 8 9 0 ( a _ b 2 c ) ",
"4 d 2 e f g h i j j k l : 2 m n ",
"  o 2 e # p q & = r k s t 2 u n ",
"  5 2 { f p v i w x y l : 2 c ) ",
"z o 2 e A B h & C j k l : 2 m D ",
"z d 2 e @ g E i C F k G : 2 H I ",
"J o 2 e K $ q i C x - ; t 2 L ) ",
"  o 2 e @ B M & N x - l t 2 c I ",
"1 o 2 e f $ q i C = - s : 2 L ) ",
"O 5 2 6 { 7 8 9 P P a Q R 2 S ) ",
"z T 2 2 2 2 2 2 2 2 2 2 2 2 U ) ",
"1 V T e ] ] ^ / / P _ Q : W X n ",
"V . Y Z f $ q & * ` k  ...+.@.n "};
