/* XPM */
static char * minimize_xpm[] = {
"16 16 81 1",
" 	c #001F44",
".	c #011E43",
"+	c #001E41",
"@	c #011D40",
"#	c #001D3E",
"$	c #001C3D",
"%	c #001C3C",
"&	c #011B3A",
"*	c #001A38",
"=	c #011A37",
"-	c #001936",
";	c #011834",
">	c #001834",
",	c #011732",
"'	c #001630",
")	c #01162F",
"!	c #001F43",
"~	c #011F43",
"{	c #011E40",
"]	c #001D3F",
"^	c #011B3B",
"/	c #001B39",
"(	c #011937",
"_	c #011936",
":	c #001835",
"<	c #001833",
"[	c #001731",
"}	c #00152F",
"|	c #001E42",
"1	c #001C3E",
"2	c #011C3D",
"3	c #001B3A",
"4	c #001733",
"5	c #00162F",
"6	c #011E42",
"7	c #001D40",
"8	c #011D3E",
"9	c #011C3B",
"0	c #011A38",
"a	c #001937",
"b	c #001836",
"c	c #001934",
"d	c #011833",
"e	c #001732",
"f	c #011F44",
"g	c #001C3F",
"h	c #011C3C",
"i	c #011631",
"j	c #011E41",
"k	c #001A3A",
"l	c #001935",
"m	c #001730",
"n	c #001E43",
"o	c #001C3B",
"p	c #002044",
"q	c #01152F",
"r	c #001E3F",
"s	c #001A39",
"t	c #011730",
"u	c #011C3E",
"v	c #001B3B",
"w	c #001A37",
"x	c #001D41",
"y	c #011E3F",
"z	c #011934",
"A	c #011D41",
"B	c #011D3F",
"C	c #2275D0",
"D	c #17589F",
"E	c #18589F",
"F	c #17579E",
"G	c #17579D",
"H	c #011938",
"I	c #011733",
"J	c #2E92FF",
"K	c #18579D",
"L	c #011935",
"M	c #2375D0",
"N	c #1858A0",
"O	c #011A39",
"P	c #001F42",
" .+@#$%&*=-;>,')",
"!~{]#$^&/(_:<,[}",
"~|+@12%3*(_>4,'5",
"~6{78$9&0abcde')",
"f!+7gh9&0a_;4[i5",
"!|j{8$%k0al:<em5",
"fn+@1$ok*=-c4,'5",
"p|j@8$930=-:4eiq",
"!|+r8hh3s(->>et)",
"f!j@u$v&swb:d,i5",
"p6xy#$93sa-z<emq",
" |A7B%v&**_;dei5",
"~|CDEFG3*H_lIetq",
"fCJJJJJKsw_L<et)",
"!.MNEFF&OwL>4,'5",
"fPj]82h3Oabz<,i)"};
