/* XPM */
static char * pin_xpm[] = {
"16 16 5 1",
" 	c None",
".	c #007AFF",
"+	c #B6D9FF",
"@	c #FFFFFF",
"#	c #C2DFFF",
"................",
"................",
"................",
"................",
"................",
"................",
".......++.......",
"......+@@+......",
"......#@@#......",
".......##.......",
"................",
"................",
"................",
"................",
"................",
"................"};
