/* XPM */
static char * close_pressed_xpm[] = {
"16 16 120 2",
"  	c None",
". 	c #4A002C",
"+ 	c #47002A",
"@ 	c #48042A",
"# 	c #490429",
"$ 	c #3E0023",
"% 	c #370422",
"& 	c #34001E",
"* 	c #2D001A",
"= 	c #290419",
"- 	c #220014",
"; 	c #1F0011",
"> 	c #1B000F",
", 	c #13040D",
"' 	c #10040B",
") 	c #0C0007",
"! 	c #040404",
"~ 	c #4D042F",
"{ 	c #4F042E",
"] 	c #680432",
"^ 	c #6A002F",
"/ 	c #5C002A",
"( 	c #3D0423",
"_ 	c #340420",
": 	c #30001C",
"< 	c #1F0413",
"[ 	c #230413",
"} 	c #1E040F",
"| 	c #14000A",
"1 	c #080406",
"2 	c #040002",
"3 	c #4A042D",
"4 	c #680031",
"5 	c #A03361",
"6 	c #B5064B",
"7 	c #B50043",
"8 	c #8A0538",
"9 	c #3A001F",
"0 	c #290018",
"a 	c #42051D",
"b 	c #58001E",
"c 	c #CB6288",
"d 	c #1F000C",
"e 	c #0A0005",
"f 	c #750437",
"g 	c #F368A2",
"h 	c #FFFFFF",
"i 	c #B0003B",
"j 	c #830534",
"k 	c #33041E",
"l 	c #5C0526",
"m 	c #6D0021",
"n 	c #96415E",
"o 	c #120008",
"p 	c #080004",
"q 	c #630030",
"r 	c #C90550",
"s 	c #A8053B",
"t 	c #6F052E",
"u 	c #64052A",
"v 	c #780025",
"w 	c #28000D",
"x 	c #0F0007",
"y 	c #9F0043",
"z 	c #C40548",
"A 	c #960533",
"B 	c #830029",
"C 	c #480015",
"D 	c #19000A",
"E 	c #47042C",
"F 	c #44042A",
"G 	c #9A0542",
"H 	c #B7003F",
"I 	c #550019",
"J 	c #390519",
"K 	c #100009",
"L 	c #4D002E",
"M 	c #440028",
"N 	c #410428",
"O 	c #880038",
"P 	c #B0053E",
"Q 	c #6D0524",
"R 	c #420019",
"S 	c #13000B",
"T 	c #410426",
"U 	c #91003B",
"V 	c #A00541",
"W 	c #B70542",
"X 	c #61001D",
"Y 	c #300515",
"Z 	c #0C0408",
"` 	c #AA0546",
" .	c #C50046",
"..	c #960030",
"+.	c #210510",
"@.	c #CA004C",
"#.	c #6C002A",
"$.	c #340615",
"%.	c #0F0409",
"&.	c #780438",
"*.	c #E34283",
"=.	c #7B0532",
"-.	c #963D5C",
";.	c #0C0407",
">.	c #6D0435",
",.	c #E04281",
"'.	c #BD0548",
").	c #8E0539",
"!.	c #30041E",
"~.	c #220415",
"{.	c #4C001A",
"].	c #A03D61",
"^.	c #683346",
"/.	c #64002F",
"(.	c #6E0433",
"_.	c #560028",
":.	c #370020",
"<.	c #1E000D",
"[.	c #3A0022",
"}.	c #260016",
". + @ # $ % & * = - ; > , ' ) ! ",
"~ { ] ^ / ( _ : = - < [ } | 1 2 ",
"3 4 5 6 7 8 9 * 0 - a b c d e ! ",
". f g h h i j k = l m h h n o p ",
"~ q r h h h s t u v h h h w x ! ",
"~ . y z h h h A B h h h C D ) ! ",
". E F G H h h h h h h I J K p ! ",
"L 3 M N O P h h h h Q R S ' 1 2 ",
"L + M T U s h h h h m J , K p 2 ",
"~ + @ V W h h h h h h X Y ' Z 1 ",
"L + `  .h h h ..B h h h C +.p ! ",
"3 4 @.h h h s #.u B h h h $.%.! ",
"L &.*.h h i =.: = l m h h -.;.! ",
"~ >.5 ,.'.).!.* 0 ~.a {.].^.e ! ",
"L E /.(._.:.& * = ~.; [ <.| Z 2 ",
"L + M N [.:.: * = }.; > , K 1 ! "};
