/* XPM */
static char * full_inactive_xpm[] = {
"16 16 28 1",
" 	c None",
".	c #171717",
"+	c #161616",
"@	c #141414",
"#	c #131313",
"$	c #121212",
"%	c #111111",
"&	c #101010",
"*	c #0F0F0F",
"=	c #0E0E0E",
"-	c #0D0D0D",
";	c #878787",
">	c #565656",
",	c #555555",
"'	c #545454",
")	c #535353",
"!	c #5A5A5A",
"~	c #6E6E6E",
"{	c #979797",
"]	c #575757",
"^	c #767676",
"/	c #787878",
"(	c #525252",
"_	c #0C0C0C",
":	c #151515",
"<	c #757575",
"[	c #777777",
"}	c #747474",
".++@@##$$%&**==-",
".+;>>>,'''')!~--",
".;{{{{{{{{{{{{~-",
".]{^>,,,'')'/{)-",
".]{>@#$$%%&*){(_",
".>{>@@#$%%&*){(_",
".]{>@@$$%%&*){)-",
".>{>:@$$%%&*){(_",
".]{>@##$%&&*){(_",
".>{>@##$%%&*){(-",
".>{>@@#$$%&*){)_",
".>{>@##$%%&*){(-",
"+]{^>,,,''))<{(-",
".[{{{{{{{{{{{{}-",
".+[>>>,''''))<-_",
"++::@##$$%&*=-=_"};
