/* XPM */
static char * full_pressed_xpm[] = {
"16 16 89 1",
" 	c None",
".	c #2D011A",
"+	c #440026",
"@	c #4F022D",
"#	c #490029",
"$	c #430226",
"%	c #410024",
"&	c #3F0224",
"*	c #3B0222",
"=	c #3A0221",
"-	c #38001F",
";	c #35001D",
">	c #31021C",
",	c #32021D",
"'	c #270116",
")	c #18010E",
"!	c #470129",
"~	c #560030",
"{	c #FF50B2",
"]	c #FF2EA3",
"^	c #FF30A4",
"/	c #FF34A6",
"(	c #FF40AB",
"_	c #240115",
":	c #540230",
"<	c #FF5CB7",
"[	c #FF42AC",
"}	c #2C021A",
"|	c #550030",
"1	c #FF44AD",
"2	c #FF48AF",
"3	c #51002E",
"4	c #4D002B",
"5	c #480029",
"6	c #430025",
"7	c #390020",
"8	c #2B0018",
"9	c #50022E",
"0	c #470229",
"a	c #30011B",
"b	c #2C0119",
"c	c #290017",
"d	c #37001F",
"e	c #460027",
"f	c #260116",
"g	c #240014",
"h	c #230014",
"i	c #210113",
"j	c #200112",
"k	c #1E0111",
"l	c #34001D",
"m	c #2B0219",
"n	c #50002D",
"o	c #230114",
"p	c #220013",
"q	c #1F0112",
"r	c #290218",
"s	c #470028",
"t	c #260015",
"u	c #250115",
"v	c #200012",
"w	c #35001E",
"x	c #460228",
"y	c #1F0011",
"z	c #34021E",
"A	c #220114",
"B	c #4C002A",
"C	c #400225",
"D	c #3E0023",
"E	c #3D0022",
"F	c #3B0021",
"G	c #3A0021",
"H	c #51002D",
"I	c #54002F",
"J	c #FF46AE",
"K	c #2D021A",
"L	c #440126",
"M	c #580031",
"N	c #250014",
"O	c #2C0019",
"P	c #420025",
"Q	c #4E002C",
"R	c #4C022B",
"S	c #3E0224",
"T	c #3D0223",
"U	c #370220",
"V	c #30001B",
"W	c #280117",
"X	c #18000D",
".+@#$%&*=-;>,>')",
"!~{]^^]]]]^^/(,_",
":{<<<<<<<<<<<<[}",
"|]<1^]^^]]]^2<^}",
"3^<^45+6&&*7^<]8",
"9]<^0a.bcc'd]<]8",
"9]<]efghijkl^<^m",
"n]<^0fgopiql^<]r",
"n^<^stuhpvqw^<^8",
"@]<^xt_hpjyz]<^m",
"9]<^sf_oAjyl]<^8",
"@]<^B+CDEFdG^<^m",
"H]<1]]^^^^]]1<]}",
"IJ<<<<<<<<<<<<1K",
"LMJ^^^]]]^^]^JlN",
"OPQRe+CST*UzlVWX"};
