/* XPM */
static char * resize_xpm[] = {
"16 16 130 2",
"  	c #01162D",
". 	c #00152B",
"+ 	c #01142A",
"@ 	c #001328",
"# 	c #011327",
"$ 	c #001226",
"% 	c #011225",
"& 	c #011123",
"* 	c #011022",
"= 	c #001021",
"- 	c #000F1F",
"; 	c #010E1D",
"> 	c #010E1C",
", 	c #010D1B",
"' 	c #010D1A",
") 	c #010C18",
"! 	c #01152D",
"~ 	c #01152A",
"{ 	c #001329",
"] 	c #011326",
"^ 	c #001124",
"/ 	c #001123",
"( 	c #001122",
"_ 	c #000F20",
": 	c #010F1F",
"< 	c #000D1B",
"[ 	c #010C19",
"} 	c #010B18",
"| 	c #01162C",
"1 	c #00142A",
"2 	c #001429",
"3 	c #001224",
"4 	c #010F21",
"5 	c #000E1D",
"6 	c #000E1C",
"7 	c #010D19",
"8 	c #00152D",
"9 	c #00152C",
"0 	c #00152A",
"a 	c #082B50",
"b 	c #051F3C",
"c 	c #041F3B",
"d 	c #051E39",
"e 	c #041E37",
"f 	c #041C36",
"g 	c #041C35",
"h 	c #051C34",
"i 	c #051B33",
"j 	c #01152B",
"k 	c #092B52",
"l 	c #2A89F0",
"m 	c #206CC0",
"n 	c #1F69B8",
"o 	c #1F68B8",
"p 	c #1F68B7",
"q 	c #1F67B6",
"r 	c #1F67B5",
"s 	c #267AD6",
"t 	c #041A31",
"u 	c #000C19",
"v 	c #000C18",
"w 	c #267CD9",
"x 	c #2E92FF",
"y 	c #2D90FD",
"z 	c #2C8DF7",
"A 	c #2D8FFB",
"B 	c #206BBB",
"C 	c #000D1A",
"D 	c #175495",
"E 	c #206CBF",
"F 	c #13467E",
"G 	c #13457C",
"H 	c #13457B",
"I 	c #13447A",
"J 	c #134479",
"K 	c #206BBC",
"L 	c #17508D",
"M 	c #00162D",
"N 	c #185394",
"O 	c #011226",
"P 	c #001022",
"Q 	c #011021",
"R 	c #17508E",
"S 	c #010C17",
"T 	c #185495",
"U 	c #175394",
"V 	c #001326",
"W 	c #011125",
"X 	c #001020",
"Y 	c #17508F",
"Z 	c #000B18",
"` 	c #01152C",
" .	c #185395",
"..	c #185293",
"+.	c #011224",
"@.	c #011020",
"#.	c #18508E",
"$.	c #1D63AF",
"%.	c #0C325C",
"&.	c #0C315B",
"*.	c #0C315A",
"=.	c #0C3159",
"-.	c #0C3158",
";.	c #0C3057",
">.	c #1D61AA",
",.	c #2780E0",
"'.	c #2880E0",
").	c #277FDF",
"!.	c #2B89EF",
"~.	c #00162C",
"{.	c #0C345F",
"].	c #2986EB",
"^.	c #2780E1",
"/.	c #2880E1",
"(.	c #2A86EA",
"_.	c #0C2F54",
":.	c #000D19",
"<.	c #0C335E",
"[.	c #0C335D",
"}.	c #0C335C",
"|.	c #0C325A",
"1.	c #0C2F56",
"2.	c #0C2F55",
"3.	c #011329",
"4.	c #000E1E",
"5.	c #000C1A",
"6.	c #011429",
"7.	c #001327",
"8.	c #010F1D",
"9.	c #010C1A",
"  . + @ # $ % & * = - ; > , ' ) ",
"! . ~ { # ] ^ / ( _ : ; > < [ } ",
"| . 1 2 # ] 3 / * 4 - 5 6 ' 7 ) ",
"8 9 0 a b c d d e f g h i , ' ) ",
"8 j k l m n o p p p q r s t u v ",
"  . w x y z z z z z z A x B C v ",
"  9 D x E F G G H I J K x L ' ) ",
"M . D x N O 3 & P Q : R x L u S ",
"M j T x U V W / P X : Y x L 7 Z ",
"` .  .x ..$ +./ P @.- #.x L [ ) ",
"  . T x $.%.&.*.=.-.;.>.x L ' Z ",
"| . $.x l ,.'.,.,.,.).!.x >.[ ) ",
"~.9 {.].^.^././.'.'.,.,.(._.:.) ",
"M j 0 <.[.}.%.|.=.=.;.1.2., C ) ",
"| 9 + 3.# ] 3 / ( @.: 4.> ' 5.v ",
"9 . 1 6.7.$ +.& * 4 : 8.6 C 9.v "};
