/* XPM */
static char * unpin_xpm[] = {
"16 16 10 1",
" 	c None",
".	c #FF008F",
"+	c #FF00A3",
"@	c #FF00BC",
"#	c #FF00CA",
"$	c #FF00D1",
"%	c #FF00F3",
"&	c #FF00FD",
"*	c #FF00FF",
"=	c #FFFFFF",
"................",
"................",
"................",
"................",
".....+@##@+.....",
"....+$%&&%$+....",
"....@%*==*%@....",
"....#&====&#....",
"....#&====&#....",
"....@%*==*%@....",
"....+$%&&%$+....",
".....+@##@+.....",
"................",
"................",
"................",
"................"};
