/* XPM */
static char * unpin_inactive_xpm[] = {
"16 16 9 1",
" 	c None",
".	c #808080",
"+	c #989898",
"@	c #B5B5B5",
"#	c #C5C5C5",
"$	c #CDCDCD",
"%	c #F2F2F2",
"&	c #FCFCFC",
"*	c #FFFFFF",
"................",
"................",
"................",
"................",
".....+@##@+.....",
"....+$%&&%$+....",
"....@%****%@....",
"....#&****&#....",
"....#&****&#....",
"....@%****%@....",
"....+$%&&%$+....",
".....+@##@+.....",
"................",
"................",
"................",
"................"};
