/* XPM */
static char * close_xpm[] = {
"16 16 33 1",
" 	c None",
".	c #15000C",
"+	c #14000B",
"@	c #13000B",
"#	c #100009",
"$	c #0E0008",
"%	c #0C0007",
"&	c #090005",
"*	c #080004",
"=	c #070004",
"-	c #060003",
";	c #050003",
">	c #030002",
",	c #020001",
"'	c #17000D",
")	c #16000C",
"!	c #11000A",
"~	c #0F0008",
"{	c #0D0007",
"]	c #040002",
"^	c #010001",
"/	c #1A0D14",
"(	c #0B0006",
"_	c #191618",
":	c #20161B",
"<	c #FFFFFF",
"[	c #E1E1E1",
"}	c #110D0F",
"|	c #0A0006",
"1	c #12000A",
"2	c #1B0D15",
"3	c #100D0F",
"4	c #0F0D0E",
".++@##$%%&*=-;>,",
"')+!##~{%&&*-]>^",
")+/@#~$%(&&=_],,",
"..:<[~$$%(*[<}>,",
"'++[<[~{%&[<[>>,",
"'.@@[<[{|[<[;>>,",
"..+@#[<[[<[-=],,",
"))@@##[<<[&=;;>^",
")+@1!~[<<[*=-],^",
"'++@![<[[<[=-;]>",
")++1[<[%|[<[;;,,",
")+@[<[~%%|[<[;],",
").2<[~${%(*[<3>,",
"')//1#$%(|&-}4,,",
").@@#~$%%|**;]]^",
")+@@#~{%%|*=-]>,"};
