/* XPM */
static char * close_pressed_xpm[] = {
"16 16 98 2",
"  	c None",
". 	c #540030",
"+ 	c #50002C",
"@ 	c #56002D",
"# 	c #57002E",
"$ 	c #440025",
"% 	c #400024",
"& 	c #380020",
"* 	c #30001C",
"= 	c #240014",
"- 	c #200010",
"; 	c #1C0010",
"> 	c #18000C",
", 	c #14000C",
"' 	c #0C0008",
") 	c #080004",
"! 	c #5C0034",
"~ 	c #5E0031",
"{ 	c #810035",
"] 	c #7D0034",
"^ 	c #6A002D",
"/ 	c #480025",
"( 	c #3C0020",
"_ 	c #34001C",
": 	c #2A0012",
"< 	c #26000E",
"[ 	c #150009",
"} 	c #040004",
"| 	c #580030",
"1 	c #7B0034",
"2 	c #D03671",
"3 	c #FF0058",
"4 	c #FA004A",
"5 	c #B9003B",
"6 	c #3F0021",
"7 	c #2C0018",
"8 	c #52001E",
"9 	c #640020",
"0 	c #FF72A9",
"a 	c #20000B",
"b 	c #0A0004",
"c 	c #93003D",
"d 	c #FF78D9",
"e 	c #FFFFFF",
"f 	c #F0003E",
"g 	c #AF003B",
"h 	c #3C0021",
"i 	c #750028",
"j 	c #80001F",
"k 	c #C7426D",
"l 	c #12000A",
"m 	c #740033",
"n 	c #FF005A",
"o 	c #900030",
"p 	c #80002F",
"q 	c #900027",
"r 	c #2A0010",
"s 	c #0F0009",
"t 	c #D3004C",
"u 	c #FF0054",
"v 	c #D00036",
"w 	c #A0002E",
"x 	c #500017",
"y 	c #1A000C",
"z 	c #D5004C",
"A 	c #FF0045",
"B 	c #600017",
"C 	c #49001B",
"D 	c #100008",
"E 	c #4C002C",
"F 	c #AC003D",
"G 	c #4D0029",
"H 	c #B90044",
"I 	c #55002D",
"J 	c #E1004B",
"K 	c #FF004D",
"L 	c #70001F",
"M 	c #3E0014",
"N 	c #F4004D",
"O 	c #C00036",
"P 	c #2B0012",
"Q 	c #460018",
"R 	c #98003F",
"S 	c #FF44A2",
"T 	c #A20037",
"U 	c #BE4267",
"V 	c #870039",
"W 	c #FF43A1",
"X 	c #FF0050",
"Y 	c #C0003F",
"Z 	c #280018",
"` 	c #550018",
" .	c #CF426D",
"..	c #77364F",
"+.	c #740034",
"@.	c #8A0039",
"#.	c #62002B",
"$.	c #1F000E",
". + @ # $ % & * * = - ; > , ' ) ",
"! ~ { ] ^ / ( _ * = = : < [ ' } ",
"| 1 2 3 4 5 6 * 7 = 8 9 0 a b ) ",
". c d e e f g h * i j e e k l ) ",
"! m n e e e f o p q e e e r s ) ",
"! . t u e e e v w e e e x y ' ) ",
". . + z A e e e e e e B C D ) ) ",
"| | E E F A e e e e q C , , ' } ",
"| + E G H f e e e e j C > D ) } ",
"! + I J K e e e e e e L M , D ' ",
"| + N K e e e O w e e e x P ) ) ",
"| 1 3 e e e f p p w e e e Q [ ) ",
"| R S e e f T _ * i j e e U l ) ",
"! V 2 W X Y & * 7 Z 8 `  ...b ) ",
"| . +.@.#.( & * * Z - : $.[ D } ",
"| + E E % ( _ * * Z - ; > D ' ) "};
