/* XPM */
static char * close_inactive_xpm[] = {
"16 16 21 1",
" 	c None",
".	c #0B0B0B",
"+	c #0A0A0A",
"@	c #080808",
"#	c #070707",
"$	c #060606",
"%	c #050505",
"&	c #040404",
"*	c #030303",
"=	c #020202",
"-	c #010101",
";	c #0C0C0C",
">	c #090909",
",	c #131313",
"'	c #171717",
")	c #1B1B1B",
"!	c #FFFFFF",
"~	c #E1E1E1",
"{	c #0F0F0F",
"]	c #141414",
"^	c #0E0E0E",
".+++@@#$$%&&**=-",
";.+>@@@#$%%&*==-",
".+,+@@#$$%%&'=--",
"..)!~@##$$&~!{=-",
";++~!~@#$%~!~==-",
";.++~!~#%~!~*==-",
"..++@~!~~!~*&=--",
"..++@@~!!~%&**=-",
".++>>@~!!~&&*=--",
";+++>~!~~!~&**==",
".++>~!~$%~!~**--",
".++~!~@$$%~!~*=-",
"..]!~@##$$&~!^=-",
";.,,>@#$$%%*{^--",
"..++@@#$$%&&*==-",
".+++@@#$$%&&*==-"};
