/* XPM */
static char * full_xpm[] = {
"16 16 44 1",
" 	c None",
".	c #2E001A",
"+	c #2B0018",
"@	c #280016",
"#	c #260015",
"$	c #240014",
"%	c #230014",
"&	c #210013",
"*	c #1F0011",
"=	c #1E0011",
"-	c #1D0010",
";	c #1C0010",
">	c #1B000F",
",	c #19000E",
"'	c #FF0E95",
")	c #AB0060",
"!	c #A9005F",
"~	c #A8005E",
"{	c #A7005E",
"]	c #A6005D",
"^	c #B30064",
"/	c #DB007B",
"(	c #1A000F",
"_	c #2D0019",
":	c #FF2EA3",
"<	c #AD0061",
"[	c #EC0084",
"}	c #AA005F",
"|	c #F00087",
"1	c #A5005D",
"2	c #AC0060",
"3	c #270016",
"4	c #220013",
"5	c #200012",
"6	c #A3005B",
"7	c #18000D",
"8	c #250015",
"9	c #A4005C",
"0	c #290017",
"a	c #2C0019",
"b	c #E90083",
"c	c #ED0085",
"d	c #E80082",
"e	c #2A0018",
".++@@##$%&*=-;>,",
".+')))!~~{{]^/(,",
"_'::::::::::::/,",
"_<:[)}}!{{]{|:1,",
"_<:23#$%445-]:67",
".2:2@38$&&5=1:97",
".<:)33$%4&*-]:1,",
"_2:203$$445-]:67",
"_<:2@##%455=]:97",
"_2:2@#8%4&*=1:9,",
".2:2@38$%&*-1:17",
"_2:23#8%4&*=]:9,",
"a<:[)}}!~~]]b:6,",
"_c::::::::::::d,",
"_ac2))!~~~{]]b(7",
"a+ee3#8$%45=;(>7"};
