/* XPM */
static char * full_pressed_xpm[] = {
"16 16 64 1",
" 	c None",
".	c #2E001A",
"+	c #440026",
"@	c #51002D",
"#	c #490029",
"$	c #410024",
"%	c #400024",
"&	c #3D0022",
"*	c #3B0021",
"=	c #38001F",
"-	c #35001D",
";	c #33001C",
">	c #33001D",
",	c #280016",
"'	c #19000E",
")	c #560030",
"!	c #FF50B2",
"~	c #FF2EA3",
"{	c #FF30A4",
"]	c #FF34A6",
"^	c #FF40AB",
"/	c #34001D",
"(	c #250015",
"_	c #FF5CB7",
":	c #FF42AC",
"<	c #550030",
"[	c #FF44AD",
"}	c #FF48AF",
"|	c #51002E",
"1	c #4D002B",
"2	c #480029",
"3	c #430025",
"4	c #390020",
"5	c #2B0018",
"6	c #52002E",
"7	c #31001B",
"8	c #2D0019",
"9	c #290017",
"0	c #37001F",
"a	c #460027",
"b	c #270016",
"c	c #240014",
"d	c #230014",
"e	c #220013",
"f	c #210013",
"g	c #1F0011",
"h	c #2C0019",
"i	c #50002D",
"j	c #200012",
"k	c #470028",
"l	c #260015",
"m	c #35001E",
"n	c #4C002A",
"o	c #420025",
"p	c #3E0023",
"q	c #3A0021",
"r	c #54002F",
"s	c #FF46AE",
"t	c #450027",
"u	c #580031",
"v	c #250014",
"w	c #4E002C",
"x	c #30001B",
"y	c #18000D",
".+@#+$%&*=-;>;,'",
"#)!~{{~~~~{{]^/(",
")!____________:.",
"<~_[{~{{~~~{}_{.",
"|{_{12+3$$&4{_~5",
"6~_{#7.899,0~_~5",
"6~_~abcdefg/{_{h",
"i~_{#bcceej/{_~5",
"i{_{klldejjm{_{5",
"i~_{kl(defgm~_{h",
"6~_{kb(cdfg/~_{5",
"i~_{n+op&*0q{_{h",
"@~_[~~{{{{~~[_~.",
"rs____________[.",
"tus{{{~~~{{~{s/v",
"how1a+o%p&4m/x9y"};
