/* XPM */
static char * minimize_pressed_xpm[] = {
"16 16 49 1",
" 	c None",
".	c #440026",
"+	c #410024",
"@	c #3E0023",
"#	c #3D0022",
"$	c #3C0022",
"%	c #3B0021",
"&	c #38001F",
"*	c #36001E",
"=	c #35001E",
"-	c #34001D",
";	c #33001D",
">	c #30001B",
",	c #430026",
"'	c #3F0023",
")	c #390020",
"!	c #37001F",
"~	c #31001B",
"{	c #2F001A",
"]	c #420025",
"^	c #3A0021",
"/	c #400024",
"(	c #32001C",
"_	c #450027",
":	c #660039",
"<	c #7B0045",
"[	c #760042",
"}	c #720040",
"|	c #6B003C",
"1	c #650039",
"2	c #4F002C",
"3	c #69003B",
"4	c #84004A",
"5	c #FF44AD",
"6	c #FF2EA3",
"7	c #FF30A4",
"8	c #740041",
"9	c #4B002A",
"0	c #7D0046",
"a	c #FF5CB7",
"b	c #5B0033",
"c	c #67003A",
"d	c #88004C",
"e	c #FF46AE",
"f	c #4E002B",
"g	c #71003F",
"h	c #6F003E",
"i	c #68003A",
"j	c #4E002C",
"..++@#$%&&*=-;>>",
",.+'@#$%)&!=;;~{",
".]++@@$^&&!-;;>{",
".,+/'#$%)!*--(>>",
"_,+/'#$%)!!=;~({",
",]]+'#$^)!==;(>{",
"_,++@#%^&&*-;;>{",
".]]+'#$^)&*=;((>",
",]+''##^)&*--(~>",
"_,]+'#%%)!*=-;({",
".,+/@#$^)!*=;(>>",
".:<[}|12&&!=-(({",
"345676689)!=-(~>",
"05aaaaa7b!!*;(~>",
"cde7766[f!*-;;>{",
"_:<8ghij^!*=;;(>"};
