/* XPM */
static char * pin_pressed_xpm[] = {
"16 16 7 1",
" 	c None",
".	c #FF008F",
"+	c #FF00B2",
"@	c #FF00D4",
"#	c #FF00EA",
"$	c #FFFDFE",
"%	c #FFFFFF",
"................",
"................",
"................",
"................",
"................",
"......+@@+......",
".....+#$$#+.....",
".....@$%%$@.....",
".....@$%%$@.....",
".....+#$$#+.....",
"......+@@+......",
"................",
"................",
"................",
"................",
"................"};
