/* XPM */
static char * resize_inactive_xpm[] = {
"16 16 55 1",
" 	c None",
".	c #171717",
"+	c #161616",
"@	c #141414",
"#	c #131313",
"$	c #121212",
"%	c #111111",
"&	c #101010",
"*	c #0F0F0F",
"=	c #0E0E0E",
"-	c #0D0D0D",
";	c #151515",
">	c #2C2C2C",
",	c #212121",
"'	c #202020",
")	c #1F1F1F",
"!	c #1E1E1E",
"~	c #1D1D1D",
"{	c #1C1C1C",
"]	c #2E2E2E",
"^	c #8D8D8D",
"/	c #707070",
"(	c #6C6C6C",
"_	c #6B6B6B",
":	c #6A6A6A",
"<	c #7E7E7E",
"[	c #1B1B1B",
"}	c #0C0C0C",
"|	c #808080",
"1	c #979797",
"2	c #959595",
"3	c #929292",
"4	c #949494",
"5	c #6E6E6E",
"6	c #565656",
"7	c #494949",
"8	c #484848",
"9	c #474747",
"0	c #464646",
"a	c #525252",
"b	c #535353",
"c	c #575757",
"d	c #666666",
"e	c #343434",
"f	c #333333",
"g	c #323232",
"h	c #646464",
"i	c #848484",
"j	c #838383",
"k	c #363636",
"l	c #8A8A8A",
"m	c #858585",
"n	c #303030",
"o	c #353535",
"p	c #313131",
".++@@##$$%&**==-",
".++;@@$$%&&**=--",
".+;;@@$$$%&*==--",
".+;>,'))!~~~{==-",
".+]^/((____:<[-}",
".+|12333333415-}",
".+61/78899051a=-",
".+616@$$%%&b1a-}",
".+c16##$%&&b1a-}",
".+c16##$%%&b1a--",
".+c1deeffggh1a=}",
".+d1^iiiiij^1h--",
"++kliimmiiiiln--",
".+;ooeefffgpp=--",
".++;@@$$%%&**=-}",
"++;;@##$$%&*=-=}"};
