/* XPM */
static char * resize_pressed_xpm[] = {
"16 16 162 2",
"  	c None",
". 	c #01162D",
"+ 	c #00152B",
"@ 	c #01142A",
"# 	c #001328",
"$ 	c #011327",
"% 	c #001226",
"& 	c #011225",
"* 	c #011123",
"= 	c #011022",
"- 	c #001021",
"; 	c #000F1F",
"> 	c #010E1D",
", 	c #010E1C",
"' 	c #010D1B",
") 	c #010D1A",
"! 	c #010C18",
"~ 	c #01152D",
"{ 	c #01182F",
"] 	c #001835",
"^ 	c #011933",
"/ 	c #011830",
"( 	c #00152D",
"_ 	c #00152C",
": 	c #00152A",
"< 	c #001228",
"[ 	c #011227",
"} 	c #011124",
"| 	c #011121",
"1 	c #000E1D",
"2 	c #010C19",
"3 	c #010B18",
"4 	c #01162C",
"5 	c #001830",
"6 	c #00234B",
"7 	c #002750",
"8 	c #02254C",
"9 	c #022449",
"0 	c #002244",
"a 	c #002043",
"b 	c #021E41",
"c 	c #021C3F",
"d 	c #001C3B",
"e 	c #001B38",
"f 	c #001B36",
"g 	c #02152B",
"h 	c #010E1B",
"i 	c #00234A",
"j 	c #002A54",
"k 	c #1056A0",
"l 	c #0A3E78",
"m 	c #083E76",
"n 	c #0A3C72",
"o 	c #083C6E",
"p 	c #08386C",
"q 	c #08386A",
"r 	c #0A3868",
"s 	c #0A3666",
"t 	c #021A36",
"u 	c #011429",
"v 	c #022852",
"w 	c #1256A4",
"x 	c #54FFFF",
"y 	c #40D8FF",
"z 	c #3ED2FF",
"A 	c #3ED0FF",
"B 	c #3ECEFF",
"C 	c #4CF4FF",
"D 	c #083462",
"E 	c #00162E",
"F 	c #000C18",
"G 	c #4CF8FF",
"H 	c #5CFFFF",
"I 	c #5AFFFF",
"J 	c #58FFFF",
"K 	c #40D6FF",
"L 	c #00182F",
"M 	c #00254F",
"N 	c #2EA8FF",
"O 	c #2587F3",
"P 	c #2076D4",
"Q 	c #2076D3",
"R 	c #2074D1",
"S 	c #2483E9",
"T 	c #2EA0FF",
"U 	c #02172E",
"V 	c #00162D",
"W 	c #00254D",
"X 	c #30A6FF",
"Y 	c #022044",
"Z 	c #001224",
"` 	c #001022",
" .	c #011021",
"..	c #021B37",
"+.	c #010C17",
"@.	c #02254D",
"#.	c #30A8FF",
"$.	c #2EA6FF",
"%.	c #011125",
"&.	c #001123",
"*.	c #001020",
"=.	c #02172D",
"-.	c #000B18",
";.	c #01152C",
">.	c #30A4FF",
",.	c #002044",
"'.	c #011224",
").	c #011020",
"!.	c #001B37",
"~.	c #30A0FF",
"{.	c #02152D",
"].	c #3AC6FF",
"^.	c #1760B1",
"/.	c #14539B",
"(.	c #14539A",
"_.	c #145398",
":.	c #145396",
"<.	c #175CA7",
"[.	c #3AC2FF",
"}.	c #00264F",
"|.	c #4EFFFF",
"1.	c #50FFFF",
"2.	c #4EFEFF",
"3.	c #56FFFF",
"4.	c #02162E",
"5.	c #00162C",
"6.	c #002751",
"7.	c #1868BE",
"8.	c #52FFFF",
"9.	c #185EA8",
"0.	c #00182E",
"a.	c #012143",
"b.	c #1866BC",
"c.	c #1866BA",
"d.	c #1866B8",
"e.	c #1864B8",
"f.	c #1864B4",
"g.	c #1862B2",
"h.	c #1860AE",
"i.	c #185EAC",
"j.	c #185EAA",
"k.	c #001429",
"l.	c #00172F",
"m.	c #022146",
"n.	c #02244F",
"o.	c #02254B",
"p.	c #022448",
"q.	c #002041",
"r.	c #021E3D",
"s.	c #021C3B",
"t.	c #001B3A",
"u.	c #021B36",
"v.	c #000D1C",
"w.	c #011831",
"x.	c #001831",
"y.	c #001630",
"z.	c #01142B",
"A.	c #011329",
"B.	c #011324",
"C.	c #001122",
"D.	c #000E1C",
"E.	c #010C1A",
". + @ # $ % & * = - ; > , ' ) ! ",
"~ + { ] ^ / ( _ : < [ } | 1 2 3 ",
"4 5 6 7 8 9 0 a b c d e f g h ! ",
"( i j k l m n n o p q r s t u ! ",
"( v w x y z A A A A B B C D E F ",
". 7 G H I J J J J J J I H K L F ",
". M N H y O P P Q R S K H T U ! ",
"V W N H X Y Z * `  ...T H T ( +.",
"V @.#.H $.0 %.&.` *...T H T =.-.",
";.W X H >.,.'.&.` ).!.~.H T {.! ",
". W #.H ].^./.(._.:.<.[.H T U -.",
"4 }.].H x |.1.|.|.|.2.3.H [.4.! ",
"5.6.7.8.|.|.1.1.1.1.|.|.x 9.0.! ",
"V a.j b.c.d.e.f.g.g.h.i.j.t k.! ",
"4 l.m.n.o.p.0 a q.r.s.t.u.g v.F ",
"_ + ( w.x.y.. ;.z.A.$ B.C.D.E.F "};
