/* XPM */
static char * close_xpm[] = {
"16 16 56 1",
" 	c None",
".	c #150000",
"+	c #140000",
"@	c #130101",
"#	c #120101",
"$	c #100000",
"%	c #0F0101",
"&	c #0E0000",
"*	c #0C0000",
"=	c #0B0101",
"-	c #090000",
";	c #080000",
">	c #070000",
",	c #050101",
"'	c #040101",
")	c #030000",
"!	c #010101",
"~	c #160101",
"{	c #150101",
"]	c #110000",
"^	c #0E0101",
"/	c #0D0000",
"(	c #080101",
"_	c #070101",
":	c #040000",
"<	c #020101",
"[	c #010000",
"}	c #1A0D00",
"|	c #0B0000",
"1	c #191600",
"2	c #020000",
"3	c #140101",
"4	c #201600",
"5	c #FFFF00",
"6	c #E1E100",
"7	c #0F0000",
"8	c #0D0101",
"9	c #0A0101",
"0	c #100E00",
"a	c #0C0101",
"b	c #130000",
"c	c #0A0000",
"d	c #050000",
"e	c #060000",
"f	c #060101",
"g	c #160000",
"h	c #110101",
"i	c #100101",
"j	c #030101",
"k	c #120000",
"l	c #1A0E00",
"m	c #100D00",
"n	c #190E00",
"o	c #090101",
"p	c #110D00",
"q	c #0F0D00",
".+@#$%&*=-;>,')!",
"~{@]$%^/=-(_,:<[",
"{+}#$^&*|-(>1:2!",
".3456788=9;650)2",
"~+@656^a=-656))!",
"~.b#656ac656d))!",
".3@#$656656ef:2!",
"g{b#$%6556(>d'<[",
"g+bh]^6556;f,:2[",
"~+@#i656656>,'j<",
"g+@k656*c656d'2!",
"{+b656^*=c656'j!",
"g3l5678/=9;65m<!",
"~{}nh%8*|o(epq2!",
"g3b#$7&*=o;_d:j[",
"g+b#$7/*=c;>,:<!"};
