/* XPM */
static char * close_pressed_xpm[] = {
"16 16 99 2",
"  	c None",
". 	c #150000",
"+ 	c #140000",
"@ 	c #140101",
"# 	c #110000",
"$ 	c #0F0101",
"% 	c #0E0000",
"& 	c #0C0000",
"* 	c #0B0101",
"= 	c #090000",
"- 	c #080000",
"; 	c #070000",
"> 	c #050101",
", 	c #040101",
"' 	c #030000",
") 	c #010101",
"! 	c #160101",
"~ 	c #1E0201",
"{ 	c #1F0000",
"] 	c #1A0000",
"^ 	c #110101",
"/ 	c #0E0101",
"( 	c #0D0000",
"_ 	c #080101",
": 	c #090101",
"< 	c #080201",
"[ 	c #050000",
"} 	c #020101",
"| 	c #010000",
"1 	c #150101",
"2 	c #1E0000",
"3 	c #341900",
"4 	c #3F0301",
"5 	c #3F0000",
"6 	c #2B0301",
"7 	c #100000",
"8 	c #0B0000",
"9 	c #120201",
"0 	c #190000",
"a 	c #4C4200",
"b 	c #230201",
"c 	c #704E01",
"d 	c #FFFF00",
"e 	c #3C0000",
"f 	c #280301",
"g 	c #1A0201",
"h 	c #200000",
"i 	c #302901",
"j 	c #020000",
"k 	c #1D0000",
"l 	c #4A0401",
"m 	c #380401",
"n 	c #210301",
"o 	c #1D0201",
"p 	c #240000",
"q 	c #040000",
"r 	c #340000",
"s 	c #470401",
"t 	c #300401",
"u 	c #280000",
"v 	c #060000",
"w 	c #130101",
"x 	c #320301",
"y 	c #400000",
"z 	c #180000",
"A 	c #0F0201",
"B 	c #160000",
"C 	c #130000",
"D 	c #120101",
"E 	c #2B0000",
"F 	c #3C0401",
"G 	c #200401",
"H 	c #120000",
"I 	c #2E0000",
"J 	c #350301",
"K 	c #400401",
"L 	c #1C0000",
"M 	c #0D0201",
"N 	c #030101",
"O 	c #3A0301",
"P 	c #480000",
"Q 	c #300000",
"R 	c #4B0000",
"S 	c #0E0401",
"T 	c #240201",
"U 	c #5E3101",
"V 	c #250301",
"W 	c #302600",
"X 	c #030201",
"Y 	c #200101",
"Z 	c #5C3101",
"` 	c #430401",
" .	c #2D0301",
"..	c #0D0101",
"+.	c #342600",
"@.	c #1E1900",
"#.	c #200201",
"$.	c #0F0000",
"%.	c #0A0000",
". + @ @ # $ % & * = - ; > , ' ) ",
"! ! ~ { ] ^ / ( * = _ : < [ } | ",
"1 2 3 4 5 6 7 & 8 = 9 0 a - ' ) ",
". b c d d e f / * g h d d i [ j ",
"! k l d d d m n o p d d d 8 q ) ",
"! . r s d d d t u d d d + v ' ) ",
". @ w x y d d d d d d z A q j ) ",
"B 1 C D E F d d d d G H [ , } | ",
"B + C D I m d d d d h A > q j | ",
"! + @ J K d d d d d d L M , N } ",
"B + O P d d d Q u d d d + < j ) ",
"1 2 R d d d m h o u d d d S , ) ",
"B T U d d e V ( * g h d d W X ) ",
"! Y 3 Z `  ...& 8 : 9 . +.@.' ) ",
"B @ k #.z $.% & * : - : - [ N | ",
"B + C D 7 $.( & * %.- ; > q } ) "};
