/* XPM */
static char * full_xpm[] = {
"16 16 73 1",
" 	c None",
".	c #2D0101",
"+	c #2B0000",
"@	c #2A0101",
"#	c #280000",
"$	c #270101",
"%	c #260000",
"&	c #250101",
"*	c #230101",
"=	c #220101",
"-	c #210000",
";	c #1F0000",
">	c #1D0101",
",	c #1C0101",
"'	c #1B0101",
")	c #1A0101",
"!	c #180101",
"~	c #E52828",
"{	c #941717",
"]	c #931818",
"^	c #921717",
"/	c #911717",
"(	c #901717",
"_	c #8F1818",
":	c #8E1818",
"<	c #991A1A",
"[	c #BB2020",
"}	c #190101",
"|	c #2C0101",
"1	c #FF2E2E",
"2	c #BA2121",
"3	c #2D0000",
"4	c #961717",
"5	c #CA2222",
"6	c #931717",
"7	c #921818",
"8	c #911818",
"9	c #8F1717",
"0	c #CC2424",
"a	c #8D1818",
"b	c #951818",
"c	c #941818",
"d	c #270000",
"e	c #240000",
"f	c #230000",
"g	c #210101",
"h	c #1F0101",
"i	c #1D0000",
"j	c #8C1717",
"k	c #180000",
"l	c #951717",
"m	c #260101",
"n	c #240101",
"o	c #1E0000",
"p	c #8E1717",
"q	c #8D1717",
"r	c #200101",
"s	c #1E0101",
"t	c #280101",
"u	c #220000",
"v	c #170101",
"w	c #200000",
"x	c #8C1818",
"y	c #2C0000",
"z	c #901818",
"A	c #C72222",
"B	c #CA2323",
"C	c #C62222",
"D	c #C62323",
"E	c #1A0000",
"F	c #2A0000",
"G	c #290101",
"H	c #1C0000",
".+@#$%&*=-;>,')!",
".+~{]]^//(_:<[}!",
"|~1111111111112!",
"3415]678((9_01a!",
"3b1cd%efgghi:1jk",
".l1c$mn*--hop1qk",
".41{dmefgrsi:1a!",
"3l1ctme*ughi:1jv",
"3b1c#%&fuwho:1xk",
"|l1c$%nfur;>p1x!",
".l1c#mn*=r;ip1ak",
"|l1cd%nfu-;o:1x!",
"y415{678zz99A1j!",
"3B111111111111C!",
"|yBc]]^//z_9:DEk",
"y+FGd%n*=gh>HE)k"};
