/* XPM */
static char * full_pressed_xpm[] = {
"16 16 87 1",
" 	c None",
".	c #2D0101",
"+	c #440000",
"@	c #4F0202",
"#	c #490000",
"$	c #430202",
"%	c #410000",
"&	c #3F0202",
"*	c #3B0202",
"=	c #3A0202",
"-	c #380000",
";	c #350000",
">	c #310202",
",	c #320202",
"'	c #270101",
")	c #180101",
"!	c #470101",
"~	c #560000",
"{	c #FF5050",
"]	c #FF2E2E",
"^	c #FF3030",
"/	c #FF3434",
"(	c #FF4040",
"_	c #240101",
":	c #540202",
"<	c #FF5C5C",
"[	c #FF4242",
"}	c #2C0202",
"|	c #550000",
"1	c #FF4444",
"2	c #FF4848",
"3	c #510000",
"4	c #4D0000",
"5	c #480000",
"6	c #430000",
"7	c #390000",
"8	c #2B0000",
"9	c #500202",
"0	c #470202",
"a	c #300101",
"b	c #2C0101",
"c	c #290000",
"d	c #370000",
"e	c #460000",
"f	c #260101",
"g	c #240000",
"h	c #230000",
"i	c #210101",
"j	c #200101",
"k	c #1E0101",
"l	c #340000",
"m	c #2B0202",
"n	c #500000",
"o	c #230101",
"p	c #220000",
"q	c #1F0101",
"r	c #290202",
"s	c #470000",
"t	c #260000",
"u	c #250101",
"v	c #200000",
"w	c #460202",
"x	c #1F0000",
"y	c #340202",
"z	c #220101",
"A	c #4C0000",
"B	c #400202",
"C	c #3E0000",
"D	c #3D0000",
"E	c #3B0000",
"F	c #3A0000",
"G	c #540000",
"H	c #FF4646",
"I	c #2D0202",
"J	c #440101",
"K	c #580000",
"L	c #250000",
"M	c #2C0000",
"N	c #420000",
"O	c #4E0000",
"P	c #4C0202",
"Q	c #3E0202",
"R	c #3D0202",
"S	c #370202",
"T	c #300000",
"U	c #280101",
"V	c #180000",
".+@#$%&*=-;>,>')",
"!~{]^^]]]]^^/(,_",
":{<<<<<<<<<<<<[}",
"|]<1^]^^]]]^2<^}",
"3^<^45+6&&*7^<]8",
"9]<^0a.bcc'd]<]8",
"9]<]efghijkl^<^m",
"n]<^0fgopiql^<]r",
"n^<^stuhpvq;^<^8",
"@]<^wt_hpjxy]<^m",
"9]<^sf_ozjxl]<^8",
"@]<^A+BCDEdF^<^m",
"3]<1]]^^^^]]1<]}",
"GH<<<<<<<<<<<<1I",
"JKH^^^]]]^^]^HlL",
"MNOPe+BQR*SylTUV"};
