/* XPM */
static char * minimize_inactive_xpm[] = {
"16 16 19 1",
" 	c None",
".	c #222222",
"+	c #212121",
"@	c #1F1F1F",
"#	c #1E1E1E",
"$	c #1C1C1C",
"%	c #1B1B1B",
"&	c #1A1A1A",
"*	c #181818",
"=	c #202020",
"-	c #1D1D1D",
";	c #191919",
">	c #232323",
",	c #797979",
"'	c #5B5B5B",
")	c #5C5C5C",
"!	c #5A5A5A",
"~	c #979797",
"{	c #7A7A7A",
"..++@@##$$%%&&**",
"..+=@@##-$$%&&;*",
".+++@@#-$$$&&&**",
"..+==@##-$%&&;**",
">.+==@##-$$%&;;*",
".+++=@#--$%%&;**",
">.++@@#-$$%&&&**",
".+++=@#--$%%&;;*",
".++==@@--$%&&;;*",
">.++=@##-$%%&&;*",
"..+=@@#--$%%&;**",
".++==###$$$%&;;*",
".+,')'!-$-$%&;;*",
">,~~~~~'-$$%&;;*",
"..{))''#-$%&&&**",
">++==@@--$%%&&;*"};
