/* XPM */
static char * pin_pressed_xpm[] = {
"16 16 6 1",
" 	c None",
".	c #FFFF00",
"+	c #C3C300",
"@	c #787800",
"#	c #3F3F00",
"$	c #000000",
"................",
"................",
"................",
"................",
"................",
"......+@@+......",
".....+#$$#+.....",
".....@$$$$@.....",
".....@$$$$@.....",
".....+#$$#+.....",
"......+@@+......",
"................",
"................",
"................",
"................",
"................"};
