/* XPM */
static char * unpin_xpm[] = {
"16 16 8 1",
" 	c None",
".	c #FFFF00",
"+	c #DFDF00",
"@	c #AFAF00",
"#	c #909000",
"$	c #7F7F00",
"%	c #000000",
"&	c #8F8F00",
"................",
"................",
"................",
"................",
".....+@##@+.....",
"....+$%%%%$+....",
"....@%%%%%%@....",
"....#%%%%%%#....",
"....#%%%%%%#....",
"....@%%%%%%@....",
"....+$%%%%$+....",
".....+@&&@+.....",
"................",
"................",
"................",
"................"};
