/* XPM */
static char * unpin_inactive_xpm[] = {
"16 16 7 1",
" 	c None",
".	c #808080",
"+	c #606060",
"@	c #2F2F2F",
"#	c #101010",
"$	c #000000",
"%	c #0F0F0F",
"................",
"................",
"................",
"................",
".....+@##@+.....",
"....+$$$$$$+....",
"....@$$$$$$@....",
"....#$$$$$$#....",
"....#$$$$$$#....",
"....@$$$$$$@....",
"....+$$$$$$+....",
".....+@%%@+.....",
"................",
"................",
"................",
"................"};
